HIERARCHY
ROOT reference
{
  OFFSET 0 0 0
  CHANNELS 6 Xposition Yposition Zposition Zrotation Xrotation Yrotation
  JOINT Hips
  {
    OFFSET 347.352 87.9396 215.108
    CHANNELS 3 Zrotation Xrotation Yrotation
    JOINT RightUpLeg
    {
      OFFSET -9.26448 -1.5905 0.0349838
      CHANNELS 3 Zrotation Xrotation Yrotation
      JOINT RightLeg
      {
        OFFSET 0.0309074 -41.8937 0.0182011
        CHANNELS 3 Zrotation Xrotation Yrotation
        JOINT RightFoot
        {
          OFFSET 0.355296 -42.3801 0.810868
          CHANNELS 3 Zrotation Xrotation Yrotation
          End Site
          {
            OFFSET 0 -7.69 17.5
          }
        }
      }
    }
    JOINT LeftUpLeg
    {
      OFFSET 9.27369 -1.59127 -0.0547904
      CHANNELS 3 Zrotation Xrotation Yrotation
      JOINT LeftLeg
      {
        OFFSET 0.0553589 -41.8938 0.0587288
        CHANNELS 3 Zrotation Xrotation Yrotation
        JOINT LeftFoot
        {
          OFFSET 0.217916 -41.5497 -0.688939
          CHANNELS 3 Zrotation Xrotation Yrotation
          End Site
          {
            OFFSET 0 -7.69 17.5
          }
        }
      }
    }
    JOINT Spine
    {
      OFFSET 0.0383554 14.2988 0.0402393
      CHANNELS 3 Zrotation Xrotation Yrotation
      JOINT Spine1
      {
        OFFSET 0.0188251 9.70742 0.0136471
        CHANNELS 3 Zrotation Xrotation Yrotation
        JOINT Spine2
        {
          OFFSET 0.0421292 10.115 0.0126686
          CHANNELS 3 Zrotation Xrotation Yrotation
          JOINT Spine3
          {
            OFFSET 0.0499826 9.71803 0.0151296
            CHANNELS 3 Zrotation Xrotation Yrotation
            JOINT Neck
            {
              OFFSET 0.04654 10.3867 0.0448026
              CHANNELS 3 Zrotation Xrotation Yrotation
              JOINT Head
              {
                OFFSET 0.0370611 9.47282 0.0189897
                CHANNELS 3 Zrotation Xrotation Yrotation
                End Site
                {
                  OFFSET 0 15.95 0
                }
              }
            }
            JOINT RightShoulder
            {
              OFFSET -3.19309 6.93146 -0.00624137
              CHANNELS 3 Zrotation Xrotation Yrotation
              JOINT RightArm
              {
                OFFSET -12.7764 0.00688168 -0.00548706
                CHANNELS 3 Zrotation Xrotation Yrotation
                JOINT RightForeArm
                {
                  OFFSET -26.5073 -0.0244096 0.0677859
                  CHANNELS 3 Zrotation Xrotation Yrotation
                  JOINT RightHand
                  {
                    OFFSET -26.0056 -0.000416843 0.0508974
                    CHANNELS 3 Zrotation Xrotation Yrotation
                    JOINT RightHandThumb1
                    {
                      OFFSET -2.48905 0.190105 3.12053
                      CHANNELS 3 Zrotation Xrotation Yrotation
                      JOINT RightHandThumb2
                      {
                        OFFSET -3.68274 0 0
                        CHANNELS 3 Zrotation Xrotation Yrotation
                        JOINT RightHandThumb3
                        {
                          OFFSET -2.55832 0 0
                          CHANNELS 3 Zrotation Xrotation Yrotation
                          End Site
                          {
                            OFFSET -2.194 0 0
                          }
                        }
                      }
                    }
                    JOINT RightInHandIndex
                    {
                      OFFSET -3.22368 0.508421 1.97842
                      CHANNELS 3 Zrotation Xrotation Yrotation
                      JOINT RightHandIndex1
                      {
                        OFFSET -5.21684 -0.091368 0.999158
                        CHANNELS 3 Zrotation Xrotation Yrotation
                        JOINT RightHandIndex2
                        {
                          OFFSET -3.61937 0 0
                          CHANNELS 3 Zrotation Xrotation Yrotation
                          JOINT RightHandIndex3
                          {
                            OFFSET -2.0521 0 0
                            CHANNELS 3 Zrotation Xrotation Yrotation
                            End Site
                            {
                              OFFSET -1.805 0 0
                            }
                          }
                        }
                      }
                    }
                    JOINT RightInHandMiddle
                    {
                      OFFSET -3.38211 0.517263 0.756737
                      CHANNELS 3 Zrotation Xrotation Yrotation
                      JOINT RightHandMiddle1
                      {
                        OFFSET -5.17411 -0.084 0.313895
                        CHANNELS 3 Zrotation Xrotation Yrotation
                        JOINT RightHandMiddle2
                        {
                          OFFSET -3.94947 0 0
                          CHANNELS 3 Zrotation Xrotation Yrotation
                          JOINT RightHandMiddle3
                          {
                            OFFSET -2.47579 0 0
                            CHANNELS 3 Zrotation Xrotation Yrotation
                            End Site
                            {
                              OFFSET -1.975 0 0
                            }
                          }
                        }
                      }
                    }
                    JOINT RightInHandRing
                    {
                      OFFSET -3.36516 0.537895 -0.128947
                      CHANNELS 3 Zrotation Xrotation Yrotation
                      JOINT RightHandRing1
                      {
                        OFFSET -4.63474 -0.022105 -0.478947
                        CHANNELS 3 Zrotation Xrotation Yrotation
                        JOINT RightHandRing2
                        {
                          OFFSET -3.44238 0 0
                          CHANNELS 3 Zrotation Xrotation Yrotation
                          JOINT RightHandRing3
                          {
                            OFFSET -2.3881 0 0
                            CHANNELS 3 Zrotation Xrotation Yrotation
                            End Site
                            {
                              OFFSET -1.857 0 0
                            }
                          }
                        }
                      }
                    }
                    JOINT RightInHandPinky
                    {
                      OFFSET -3.16105 0.469368 -1.20179
                      CHANNELS 3 Zrotation Xrotation Yrotation
                      JOINT RightHandPinky1
                      {
                        OFFSET -4.14105 -0.022105 -1.09053
                        CHANNELS 3 Zrotation Xrotation Yrotation
                        JOINT RightHandPinky2
                        {
                          OFFSET -2.75653 0 0
                          CHANNELS 3 Zrotation Xrotation Yrotation
                          JOINT RightHandPinky3
                          {
                            OFFSET -1.74189 0 0
                            CHANNELS 3 Zrotation Xrotation Yrotation
                            End Site
                            {
                              OFFSET -1.645 0 0
                            }
                          }
                        }
                      }
                    }
                  }
                }
              }
            }
            JOINT LeftShoulder
            {
              OFFSET 3.25131 6.94393 -0.0111894
              CHANNELS 3 Zrotation Xrotation Yrotation
              JOINT LeftArm
              {
                OFFSET 12.7762 -0.0164608 -0.057961
                CHANNELS 3 Zrotation Xrotation Yrotation
                JOINT LeftForeArm
                {
                  OFFSET 26.494 -0.0292415 -0.00751187
                  CHANNELS 3 Zrotation Xrotation Yrotation
                  JOINT LeftHand
                  {
                    OFFSET 26.0005 -0.052199 0.00178648
                    CHANNELS 3 Zrotation Xrotation Yrotation
                    JOINT LeftHandThumb1
                    {
                      OFFSET 2.48905 0.190105 3.12053
                      CHANNELS 3 Zrotation Xrotation Yrotation
                      JOINT LeftHandThumb2
                      {
                        OFFSET 3.68274 0 0
                        CHANNELS 3 Zrotation Xrotation Yrotation
                        JOINT LeftHandThumb3
                        {
                          OFFSET 2.55832 0 0
                          CHANNELS 3 Zrotation Xrotation Yrotation
                          End Site
                          {
                            OFFSET 2.194 0 0
                          }
                        }
                      }
                    }
                    JOINT LeftInHandIndex
                    {
                      OFFSET 3.22368 0.508421 1.97842
                      CHANNELS 3 Zrotation Xrotation Yrotation
                      JOINT LeftHandIndex1
                      {
                        OFFSET 5.21684 -0.091368 0.999158
                        CHANNELS 3 Zrotation Xrotation Yrotation
                        JOINT LeftHandIndex2
                        {
                          OFFSET 3.61937 0 0
                          CHANNELS 3 Zrotation Xrotation Yrotation
                          JOINT LeftHandIndex3
                          {
                            OFFSET 2.0521 0 0
                            CHANNELS 3 Zrotation Xrotation Yrotation
                            End Site
                            {
                              OFFSET 1.805 0 0
                            }
                          }
                        }
                      }
                    }
                    JOINT LeftInHandMiddle
                    {
                      OFFSET 3.38211 0.517263 0.756737
                      CHANNELS 3 Zrotation Xrotation Yrotation
                      JOINT LeftHandMiddle1
                      {
                        OFFSET 5.17411 -0.084 0.313895
                        CHANNELS 3 Zrotation Xrotation Yrotation
                        JOINT LeftHandMiddle2
                        {
                          OFFSET 3.94947 0 0
                          CHANNELS 3 Zrotation Xrotation Yrotation
                          JOINT LeftHandMiddle3
                          {
                            OFFSET 2.47579 0 0
                            CHANNELS 3 Zrotation Xrotation Yrotation
                            End Site
                            {
                              OFFSET 1.975 0 0
                            }
                          }
                        }
                      }
                    }
                    JOINT LeftInHandRing
                    {
                      OFFSET 3.36516 0.537895 -0.128947
                      CHANNELS 3 Zrotation Xrotation Yrotation
                      JOINT LeftHandRing1
                      {
                        OFFSET 4.63474 -0.022105 -0.478947
                        CHANNELS 3 Zrotation Xrotation Yrotation
                        JOINT LeftHandRing2
                        {
                          OFFSET 3.44238 0 0
                          CHANNELS 3 Zrotation Xrotation Yrotation
                          JOINT LeftHandRing3
                          {
                            OFFSET 2.3881 0 0
                            CHANNELS 3 Zrotation Xrotation Yrotation
                            End Site
                            {
                              OFFSET 1.857 0 0
                            }
                          }
                        }
                      }
                    }
                    JOINT LeftInHandPinky
                    {
                      OFFSET 3.16105 0.469368 -1.20179
                      CHANNELS 3 Zrotation Xrotation Yrotation
                      JOINT LeftHandPinky1
                      {
                        OFFSET 4.14105 -0.022105 -1.09053
                        CHANNELS 3 Zrotation Xrotation Yrotation
                        JOINT LeftHandPinky2
                        {
                          OFFSET 2.75653 0 0
                          CHANNELS 3 Zrotation Xrotation Yrotation
                          JOINT LeftHandPinky3
                          {
                            OFFSET 1.74189 0 0
                            CHANNELS 3 Zrotation Xrotation Yrotation
                            End Site
                            {
                              OFFSET 1.645 0 0
                            }
                          }
                        }
                      }
                    }
                  }
                }
              }
            }
          }
        }
      }
    }
  }
}
MOTION
Frames: 2
Frame Time: 0.00833333
3.000000000000000000e+02 0.000000000000000000e+00 0.000000000000000000e+00 0.000000000000000000e+00 0.000000000000000000e+00 0.000000000000000000e+00 2.820443786866043412e-02 -3.580344248335280699e-02 9.244562035432879465e-02 -8.981164943941501166e-02 -8.561053976174445856e-02 -6.107341634456363300e-02 2.604260832972346215e-02 -6.640351170598040101e-03 -2.559629093979230025e-02 -2.103497559601121350e-02 1.129635960890767489e-02 -5.736063631935925042e-03 -2.203582651151197308e-02 -7.203699837493940383e-02 -1.586759031558189828e-02 1.301857046872762630e-02 -3.122842981232980090e-03 -3.333638176808182557e-02 -3.718810873132700340e-02 -1.474415365891537655e-02 -1.408212837062933036e-02 -2.043246568993458204e-02 -6.958076164125990247e-03 -7.287764628254457533e-02 -4.315191769540911368e-03 -6.880367442104035752e-03 -1.653329085426947023e-02 -7.356624749091558724e-03 -1.415800714560474204e-02 -2.591567988824369784e-02 -3.820003400676870789e-04 3.551125250826805968e-03 -6.531529069377905983e-05 2.976638697692684642e-03 1.510043700266957244e-02 -6.589873009253519043e-02 -3.497929046933781830e-03 2.415834403372767517e-02 2.837683846842295118e-02 9.983273176394528298e-03 -5.031758948381288322e-03 1.845987133862477328e-02 2.662155370226639700e-02 -5.434324487684576155e-02 8.725834021357320447e-02 -3.788760257846616186e-01 -2.461458626529397786e-01 2.048852515610678771e-01 -1.789845280594911520e-02 -1.294496549522544948e-01 -2.908584178431285888e-02 0.000000000000000000e+00 0.000000000000000000e+00 0.000000000000000000e+00 -1.482070267538512379e-15 -4.256905336130789149e-16 0.000000000000000000e+00 2.585764185327860128e-15 -7.791528959195514134e-16 0.000000000000000000e+00 -1.284340561296795996e-15 1.181328397967851415e-15 1.545728814429109439e-15 0.000000000000000000e+00 0.000000000000000000e+00 0.000000000000000000e+00 0.000000000000000000e+00 2.588454092050677684e-16 -3.336907556838620268e-15 0.000000000000000000e+00 -1.972437631629599465e-15 9.843994676284035590e-16 -1.284340561296795996e-15 1.181328397967851415e-15 1.545728814429109439e-15 0.000000000000000000e+00 2.923854185873615339e-15 1.387962388721128223e-15 0.000000000000000000e+00 -9.394816079312295714e-16 1.441399167634097740e-15 0.000000000000000000e+00 5.708956412881889177e-16 -2.300420546343817765e-15 -1.284340561296795996e-15 1.181328397967851415e-15 1.545728814429109439e-15 0.000000000000000000e+00 0.000000000000000000e+00 0.000000000000000000e+00 0.000000000000000000e+00 1.657483982296545415e-15 7.764916413571530692e-16 0.000000000000000000e+00 1.586475042749533616e-16 2.952953311916775595e-15 -1.284340561296795996e-15 1.181328397967851415e-15 1.545728814429109439e-15 0.000000000000000000e+00 0.000000000000000000e+00 0.000000000000000000e+00 0.000000000000000000e+00 4.715990823835087710e-15 1.296559749175440334e-15 0.000000000000000000e+00 4.131136324949391697e-16 1.506204032105514095e-15 -1.769861422985809229e-02 4.889319863764796104e-02 1.000811850633119837e-01 1.918814240038556329e-02 6.042365212014578352e-02 6.153163750908585000e-02 -4.684007432688538919e-02 5.835775926606915492e-02 -5.975115863171607256e-01 1.774951440627422494e-01 -3.599937565370294190e-01 3.952627321796418625e-01 0.000000000000000000e+00 0.000000000000000000e+00 0.000000000000000000e+00 5.731962630772002632e-16 -2.052495804256330903e-16 0.000000000000000000e+00 1.046513696448607412e-15 -1.625598638310931978e-17 0.000000000000000000e+00 6.238841735079938735e-16 1.153041897520145092e-15 -5.126991627753705768e-15 0.000000000000000000e+00 0.000000000000000000e+00 0.000000000000000000e+00 0.000000000000000000e+00 8.419282599560262048e-16 1.481043824081449429e-16 0.000000000000000000e+00 3.006123474009062898e-16 -3.040201398532815473e-15 6.238841735079938735e-16 1.153041897520145092e-15 -5.126991627753705768e-15 0.000000000000000000e+00 -8.820760951356898350e-17 -1.173554498342562303e-15 0.000000000000000000e+00 -6.732778670786544576e-16 7.129717186425643560e-16 0.000000000000000000e+00 -4.989449852141471078e-16 -1.545604348763654705e-15 6.238841735079938735e-16 1.153041897520145092e-15 -5.126991627753705768e-15 0.000000000000000000e+00 0.000000000000000000e+00 0.000000000000000000e+00 0.000000000000000000e+00 4.127063354988427253e-16 2.392578976040377476e-15 0.000000000000000000e+00 3.855032875263134439e-16 2.457932084281640092e-15 6.238841735079938735e-16 1.153041897520145092e-15 -5.126991627753705768e-15 0.000000000000000000e+00 0.000000000000000000e+00 0.000000000000000000e+00 0.000000000000000000e+00 -1.753911806043740687e-15 8.846938619806819989e-16 0.000000000000000000e+00 -2.095089556859321016e-16 1.556903559531829656e-15
3.000000000000000000e+02 0.000000000000000000e+00 0.000000000000000000e+00 0.000000000000000000e+00 0.000000000000000000e+00 0.000000000000000000e+00 1.223905890763347069e-02 -1.716296231018618265e-02 1.246908714433212113e-02 -2.326063528244508641e-02 -1.515998047303949992e-02 -1.320832275809477770e-02 9.922792537692010431e-03 -1.895218576788288561e-02 1.135806576044675643e-02 -2.951612270564930862e-02 1.579696346141032728e-02 -1.021412879733629535e-02 7.373295564462353791e-03 -1.188002497756109836e-03 6.022204637398148597e-02 1.603976755826318906e-02 -7.909109995287818412e-03 -4.174324384367125024e-02 -7.896163672314689130e-02 -2.085117192686815335e-02 -4.444940370175731736e-02 -5.350571708310426083e-03 -1.455028704730291188e-02 -1.506710228952332434e-02 -9.824678085956065933e-04 -4.563108689742730560e-03 -3.086834158568583716e-03 -1.723238752905343740e-03 -8.087644735055857931e-03 -4.052614186456975250e-03 1.223798698365938112e-03 7.229052667593522698e-03 -6.723132294245142294e-04 8.558361299752681450e-03 3.461722732579618905e-02 -1.047535903010427538e-01 1.251270633632828484e-02 4.503863711852890139e-02 5.130575121521148418e-02 -6.567883650491905534e-02 -4.208480932511488720e-02 4.778291145843980431e-02 -1.368904418398241007e-01 -8.401983801404834529e-02 -1.650663316684176096e-01 -2.897048165242188666e-01 -1.901172330963206980e-01 7.598032663873403869e-02 7.548515482056858406e-02 -4.692160062300753109e-01 -1.840946471044314914e-02 0.000000000000000000e+00 0.000000000000000000e+00 0.000000000000000000e+00 -7.268090904631705466e-16 2.463849398980636010e-15 0.000000000000000000e+00 4.132262554952082372e-15 -3.484726067613491490e-16 0.000000000000000000e+00 -1.980515860383033030e-15 -7.453518793995667352e-16 3.174882619032900265e-15 0.000000000000000000e+00 0.000000000000000000e+00 0.000000000000000000e+00 0.000000000000000000e+00 -1.149546284716784136e-17 -6.399353977505151871e-15 0.000000000000000000e+00 -7.173100839557092852e-16 -1.221496073916234238e-15 -1.980515860383033030e-15 -7.453518793995667352e-16 3.174882619032900265e-15 0.000000000000000000e+00 1.950746568420669921e-15 -5.870350249562789404e-17 0.000000000000000000e+00 -6.247011444714947137e-16 2.452361511871829519e-17 0.000000000000000000e+00 6.851928062571186658e-16 -3.108021683766771831e-15 -1.980515860383033030e-15 -7.453518793995667352e-16 3.174882619032900265e-15 0.000000000000000000e+00 0.000000000000000000e+00 0.000000000000000000e+00 0.000000000000000000e+00 2.074074037385498278e-15 3.416692865615774455e-16 0.000000000000000000e+00 5.409626420580374592e-16 -6.024540285762262903e-16 -1.980515860383033030e-15 -7.453518793995667352e-16 3.174882619032900265e-15 0.000000000000000000e+00 0.000000000000000000e+00 0.000000000000000000e+00 0.000000000000000000e+00 2.179485551228434962e-15 1.149455490857915589e-15 0.000000000000000000e+00 1.511117552590651592e-15 -1.339469400741900963e-15 -7.726774502208160963e-03 1.052998775614349264e-02 4.585852033075009382e-02 1.053821115114724448e-02 3.972928994611948234e-02 -2.453238872587758593e-02 5.560281590237962056e-03 4.677446894313579823e-02 -3.473138635282204123e-01 1.807626872960262643e-01 -1.729546640173390271e-01 2.336234806687144949e-01 0.000000000000000000e+00 0.000000000000000000e+00 0.000000000000000000e+00 2.765880972579045946e-15 -1.540080698192801750e-15 0.000000000000000000e+00 -3.056482259071000821e-16 -1.170858662968989151e-15 0.000000000000000000e+00 2.666187676331779697e-16 9.902016063916627579e-16 -3.262726383877440606e-15 0.000000000000000000e+00 0.000000000000000000e+00 0.000000000000000000e+00 0.000000000000000000e+00 1.233202983268604394e-15 -7.243139426421426869e-16 0.000000000000000000e+00 2.553796259241260650e-15 -3.589311621705979989e-15 2.666187676331779697e-16 9.902016063916627579e-16 -3.262726383877440606e-15 0.000000000000000000e+00 3.189598438380475154e-16 -3.709162579260190501e-15 0.000000000000000000e+00 5.896951521822114101e-16 -1.757110803734374561e-15 0.000000000000000000e+00 -4.849686955727289995e-16 -2.272497544241702126e-15 2.666187676331779697e-16 9.902016063916627579e-16 -3.262726383877440606e-15 0.000000000000000000e+00 0.000000000000000000e+00 0.000000000000000000e+00 0.000000000000000000e+00 1.957771018875705255e-15 -1.541021713850795745e-15 0.000000000000000000e+00 2.739251588798463275e-15 1.428159210366701856e-15 2.666187676331779697e-16 9.902016063916627579e-16 -3.262726383877440606e-15 0.000000000000000000e+00 0.000000000000000000e+00 0.000000000000000000e+00 0.000000000000000000e+00 -2.928717604387159627e-16 -1.839226237521300425e-15 0.000000000000000000e+00 4.441364213998101175e-16 6.456184751945179191e-16
